<svg xmlns="http://www.w3.org/2000/svg" width="224.44" height="214.829" viewBox="0 0 224.44 214.829"><defs><style>.a{fill:none;stroke:#fff;stroke-linecap:round;stroke-linejoin:round;stroke-width:13px;}</style></defs><g transform="translate(5 5)"><path class="a" d="M31.222,39.611A9.611,9.611,0,1,1,21.611,30,9.611,9.611,0,0,1,31.222,39.611Z" transform="translate(56.776 154.107)"/><path class="a" d="M47.722,39.611A9.611,9.611,0,1,1,38.111,30,9.611,9.611,0,0,1,47.722,39.611Z" transform="translate(145.996 154.107)"/><path class="a" d="M1.5,1.5H39.944L65.7,130.19a19.222,19.222,0,0,0,19.222,15.474H178.34a19.222,19.222,0,0,0,19.222-15.474L212.94,49.554H49.554"/></g></svg>